HIERARCHY
ROOT Hips
{
	OFFSET	0.00	0.00	0.00
	CHANNELS 6 Xposition Yposition Zposition Zrotation Xrotation Yrotation
	JOINT LeftUpLeg
	{
		OFFSET	 0.126116	-0.014019	-0.065224
		CHANNELS 3 Zrotation Xrotation Yrotation
		JOINT LeftLeg
		{
			OFFSET	 0.000000	 0.000000	 0.569914
			CHANNELS 3 Zrotation Xrotation Yrotation
			JOINT LeftFoot
			{
				OFFSET	 0.000000	 0.000000	 0.544423
				CHANNELS 3 Zrotation Xrotation Yrotation
				JOINT LeftToeBase
				{
					OFFSET	 0.000000	 0.000000	 0.207117
					CHANNELS 3 Zrotation Xrotation Yrotation
					End Site
					{
						OFFSET	 0.000000	 0.000000	 0.207117
					}
				}
			}
		}
	}
	JOINT RightUpLeg
	{
		OFFSET	-0.124023	-0.008373	-0.065224
		CHANNELS 3 Zrotation Xrotation Yrotation
		JOINT RightLeg
		{
			OFFSET	 0.000000	 0.000000	 0.570047
			CHANNELS 3 Zrotation Xrotation Yrotation
			JOINT RightFoot
			{
				OFFSET	 0.000000	 0.000000	 0.544354
				CHANNELS 3 Zrotation Xrotation Yrotation
				JOINT RightToeBase
				{
					OFFSET	 0.000000	 0.000000	 0.207540
					CHANNELS 3 Zrotation Xrotation Yrotation
					End Site
					{
						OFFSET	 0.000000	 0.000000	 0.207540
					}
				}
			}
		}
	}
	JOINT Spine
	{
		OFFSET	 0.000184	-0.007763	 0.117403
		CHANNELS 3 Zrotation Xrotation Yrotation
		JOINT Spine1
		{
			OFFSET	 0.000000	 0.000000	 0.137269
			CHANNELS 3 Zrotation Xrotation Yrotation
			JOINT Spine2
			{
				OFFSET	 0.000000	 0.000000	 0.156879
				CHANNELS 3 Zrotation Xrotation Yrotation
				JOINT LeftShoulder
				{
					OFFSET	 0.080501	-0.002496	 0.160144
					CHANNELS 3 Zrotation Xrotation Yrotation
					JOINT LeftArm
					{
						OFFSET	 0.000000	 0.000000	 0.164363
						CHANNELS 3 Zrotation Xrotation Yrotation
						JOINT LeftForeArm
						{
							OFFSET	 0.000000	 0.000000	 0.364576
							CHANNELS 3 Zrotation Xrotation Yrotation
							JOINT LeftHand
							{
								OFFSET	 0.000000	 0.000000	 0.360812
								CHANNELS 3 Zrotation Xrotation Yrotation
								JOINT LeftHandIndex1
								{
									OFFSET	 0.000000	 0.000000	 0.086006
									CHANNELS 3 Zrotation Xrotation Yrotation
									JOINT LeftHandIndex2
									{
										OFFSET	 0.000000	 0.000000	 0.047237
										CHANNELS 3 Zrotation Xrotation Yrotation
										JOINT LeftHandIndex3
										{
											OFFSET	-0.004284	-0.000551	 0.038165
											CHANNELS 3 Zrotation Xrotation Yrotation
											End Site
											{
												OFFSET	-0.004284	-0.000551	 0.038165
											}
										}
									}
								}
							}
						}
					}
				}
				JOINT Neck
				{
					OFFSET	 0.000000	 0.000000	 0.176489
					CHANNELS 3 Zrotation Xrotation Yrotation
					JOINT Head
					{
						OFFSET	 0.000000	-0.001747	 0.077940
						CHANNELS 3 Zrotation Xrotation Yrotation
						End Site
						{
							OFFSET	 0.000000	-0.001747	 0.077940
						}
					}
				}
				JOINT RightShoulder
				{
					OFFSET	-0.080363	 0.000306	 0.159706
					CHANNELS 3 Zrotation Xrotation Yrotation
					JOINT RightArm
					{
						OFFSET	 0.000000	 0.000000	 0.164196
						CHANNELS 3 Zrotation Xrotation Yrotation
						JOINT RightForeArm
						{
							OFFSET	 0.000000	 0.000000	 0.365611
							CHANNELS 3 Zrotation Xrotation Yrotation
							JOINT RightHand
							{
								OFFSET	 0.000000	 0.000000	 0.360648
								CHANNELS 3 Zrotation Xrotation Yrotation
								JOINT RightHandIndex1
								{
									OFFSET	 0.000000	 0.000000	 0.069977
									CHANNELS 3 Zrotation Xrotation Yrotation
									JOINT RightHandIndex2
									{
										OFFSET	 0.000000	 0.000000	 0.052305
										CHANNELS 3 Zrotation Xrotation Yrotation
										JOINT RightHandIndex3
										{
											OFFSET	 0.009002	-0.000782	 0.042196
											CHANNELS 3 Zrotation Xrotation Yrotation
											End Site
											{
												OFFSET	 0.009002	-0.000782	 0.042196
											}
										}
									}
								}
							}
						}
					}
				}
			}
		}
	}
}
MOTION
Frames:    11
Frame Time: 0.03333334
-0.438913	-0.033697	 1.273046	-179.229200	-3.877916	 1.349545	 24.370510	-1.147699	 173.614600	-8.738769	-14.765560	-2.389941	-1.108726	 71.764720	-6.435546	-2.385833	 28.452760	 0.000004	 14.693520	 0.166608	 178.117100	 3.126542	-15.392640	 0.425826	 9.242290	 70.264680	 5.897065	 2.384659	 28.388700	-0.000001	 4.552346	 9.012877	-5.432463	 2.892183	 0.663220	 13.387330	-8.766344	 1.213182	-13.833180	-91.776160	 78.527400	 180.000000	-27.887890	 4.463856	 10.518720	-0.562066	-2.321255	-58.689770	-1.054569	-20.803440	-2.191148	-4.130319	 21.525730	 0.991547	-5.167930	 0.731704	 3.519349	-1.378229	 35.397820	-2.634230	-3.028829	 1.023467	 1.969438	-17.741780	-27.766290	-16.617750	 89.782080	 78.203870	-180.000000	 59.051800	 3.494749	-2.592663	-13.355140	-9.548232	 52.528160	 45.999190	 63.336040	 21.987120	 5.716227	 19.173190	-3.685159	 5.027444	 0.246877	-9.377972	-2.350882	 35.473990	 5.254307
-0.439093	-0.034103	 1.272110	-179.020200	-4.139159	 1.472297	 24.983450	-2.537857	 173.295300	-9.459455	-18.142430	-3.149330	-1.358202	 73.591950	-5.644403	-2.385833	 28.452760	 0.000004	 14.222040	-0.714838	 178.352800	 3.522333	-17.883630	 0.614302	 8.592735	 71.300110	 6.241349	 2.384659	 28.388700	-0.000001	 3.999503	 9.487841	-5.461145	 2.716693	 0.673563	 12.942690	-8.926016	 1.002885	-13.554930	-91.776220	 78.527380	-180.000000	-29.768120	 8.630220	 13.644860	-1.112579	-2.172411	-68.486710	-1.420495	-20.506860	-2.328392	-4.130319	 21.525730	 0.991547	-5.167930	 0.731704	 3.519349	-1.378229	 35.397820	-2.634230	-3.169896	 1.227104	 2.206152	-18.136000	-28.345130	-17.664300	 89.782080	 78.203850	-180.000000	 60.931960	 6.702568	-8.100541	-11.040810	-10.845970	 65.468200	 55.636900	 59.017560	 11.698900	 5.716227	 19.173190	-3.685159	 5.027444	 0.246877	-9.377972	-2.350882	 35.473990	 5.254307
-0.439463	-0.035111	 1.269774	-178.650000	-4.303642	 1.353178	 23.250640	-4.823020	 173.503600	-9.693926	-24.527400	-4.295276	-6.902660	 77.602660	-0.104758	-2.385833	 28.452760	 0.000004	 13.428660	-2.995382	 179.502300	 3.674208	-23.439190	 0.856172	 13.393650	 74.185840	 0.967671	 2.384659	 28.388700	-0.000001	 2.535137	 10.018530	-5.172818	 2.121306	 0.483402	 12.446790	-8.804318	 1.200362	-13.271960	-91.776180	 78.527420	 180.000000	-27.294400	 18.433440	 15.655570	-1.766358	-2.240063	-85.197630	-1.495175	-20.880340	-2.425532	-4.130319	 21.525730	 0.991547	-5.167930	 0.731704	 3.519349	-1.378229	 35.397820	-2.634230	-3.131878	 1.137235	 2.380740	-18.022480	-27.884930	-18.051510	 89.782220	 78.203920	 179.999900	 56.376880	 12.894860	-15.637970	-6.210257	-11.183040	 89.837350	 58.752190	 42.597720	-1.145379	 5.716227	 19.173190	-3.685159	 5.027444	 0.246877	-9.377972	-2.350882	 35.473990	 5.254307
-0.441884	-0.038879	 1.261229	-177.263700	-5.308139	 0.796061	 19.642730	-8.820640	 174.151100	-11.846570	-39.378660	-7.946241	-57.613460	 85.645530	 51.185270	-2.385833	 28.452760	 0.000004	 11.519830	-7.395543	-176.165600	 4.637163	-36.352690	 1.847328	 34.493530	 79.322300	-22.004980	 2.384659	 28.388700	-0.000001	-2.258667	 11.906320	-3.992401	 0.287101	 1.760101	 10.601760	-9.451281	-0.419360	-12.307790	-91.776180	 78.527350	-180.000000	 8.487632	 52.104060	-34.076460	-1.673942	-1.257886	-79.387380	-2.387102	-20.927460	-2.759027	-4.130319	 21.525730	 0.991547	-5.167930	 0.731704	 3.519349	-1.378229	 35.397820	-2.634230	-2.990686	-0.181293	 0.645215	-17.401330	-26.362160	-14.153970	 89.782090	 78.203870	 180.000000	 3.977322	 53.420570	 21.618560	-1.791918	-7.634000	 121.013900	 16.665900	-3.094025	-20.265150	 5.716227	 19.173190	-3.685159	 5.027444	 0.246877	-9.377972	-2.350882	 35.473990	 5.254307
-0.447241	-0.042199	 1.255838	-176.280200	-6.005705	 0.359009	 16.611840	-9.701465	 175.201700	-12.956210	-45.924160	-9.798960	-119.845600	 84.243330	 113.430400	-2.385833	 28.452760	 0.000004	 9.856625	-9.113153	-172.798500	 5.381070	-42.050990	 2.586494	 47.797680	 79.370380	-36.808220	 2.384659	 28.388700	-0.000001	-5.730030	 12.753110	-3.444176	-0.697267	 3.157182	 10.742770	-9.939642	-1.367834	-12.498890	-91.776150	 78.527350	 180.000000	 40.624630	 50.594570	-109.428200	-1.729607	 0.103034	-2.798278	-3.376692	-20.711930	-3.086895	-4.130319	 21.525730	 0.991547	-5.167930	 0.731704	 3.519349	-1.378229	 35.397820	-2.634230	-3.625632	 1.225521	 1.520510	-18.159910	-27.257840	-16.279070	 89.782140	 78.203890	 180.000000	-59.243210	 46.425720	 93.573610	-6.483674	-7.853344	 89.895590	-14.566240	-23.257160	-15.603780	 5.716227	 19.173190	-3.685159	 5.027444	 0.246877	-9.377972	-2.350882	 35.473990	 5.254307
-0.459897	-0.045132	 1.256146	-174.621400	-6.125187	 0.791477	 13.027030	-8.947072	 176.051500	-11.786770	-44.429020	-8.712639	-108.310600	 84.387630	 101.553600	-2.385833	 28.452760	 0.000004	 6.204377	-9.203799	-172.374900	 6.314044	-41.333560	 3.168593	 32.598820	 77.049630	-22.218060	 2.384659	 28.388700	-0.000001	-9.113157	 12.399190	-3.708331	 0.035449	 3.732100	 11.872910	-10.078190	-1.248877	-12.991100	-91.776120	 78.527420	 179.999900	 63.290530	 38.293880	-103.924400	-2.383152	 1.426785	-66.931520	-4.975812	-20.694830	-3.672776	-4.130319	 21.525730	 0.991547	-5.167930	 0.731704	 3.519349	-1.378229	 35.397820	-2.634230	-4.086110	 1.955768	 2.212720	-18.456270	-26.955140	-17.367780	 89.782060	 78.203890	-180.000000	-68.156870	 41.449430	 100.797300	-7.609405	-5.846808	 81.604220	-18.173530	-34.625710	-11.016760	 5.716227	 19.173190	-3.685159	 5.027444	 0.246877	-9.377972	-2.350882	 35.473990	 5.254307
-0.469094	-0.045800	 1.255226	-173.596200	-5.493292	 0.596526	 10.712760	-8.735530	 177.587000	-10.848270	-43.466330	-7.903959	-102.448200	 84.602540	 95.181730	-2.385833	 28.452760	 0.000004	 5.441912	-11.721930	-170.780800	 6.788584	-44.475140	 3.694617	 30.781650	 76.306250	-20.905840	 2.384659	 28.388700	-0.000001	-11.329070	 11.541740	-3.095567	 0.992921	 2.985448	 12.838680	-10.143760	-0.642820	-13.458310	-91.776080	 78.527400	 179.999900	 40.325440	 48.021450	-95.368760	-2.305277	 2.838593	-78.144290	-6.243905	-20.684350	-4.177987	-4.130319	 21.525730	 0.991547	-5.167930	 0.731704	 3.519349	-1.378229	 35.397820	-2.634230	-4.059081	 0.520689	 1.102745	-17.903930	-25.047250	-14.233910	 89.781960	 78.203850	-179.999900	-62.722000	 41.346930	 86.043530	-8.566436	-3.920371	 68.798930	 6.394617	-44.715230	 20.405060	 5.716227	 19.173190	-3.685159	 5.027444	 0.246877	-9.377972	-2.350882	 35.473990	 5.254307
-0.476727	-0.045532	 1.255472	-172.310100	-4.775740	 0.336546	 7.551559	-8.225354	 179.164800	-9.662652	-42.049630	-6.888072	-98.776230	 84.979920	 90.769410	-2.385833	 28.452760	 0.000004	 7.659298	-15.435300	-168.888800	 5.528513	-49.449690	 3.045885	 41.505680	 76.731320	-31.504320	 2.384659	 28.388700	-0.000001	-13.859060	 10.315600	-2.867729	 2.930344	 3.443709	 15.066120	-10.231790	-0.540228	-14.566870	-91.776180	 78.527360	 180.000000	 11.405070	 52.995120	-61.689010	-1.165932	 4.934196	-95.065900	-8.231769	-20.713630	-4.943015	-4.130319	 21.525730	 0.991547	-5.167930	 0.731704	 3.519349	-1.378229	 35.397820	-2.634230	-4.100572	-0.478070	 0.689477	-17.647650	-23.785680	-12.690830	 89.782100	 78.203850	 180.000000	-45.301750	 43.669500	 62.471050	-8.175277	-1.641421	 66.226240	 31.609970	-36.683220	 43.180830	 5.716227	 19.173190	-3.685159	 5.027444	 0.246877	-9.377972	-2.350882	 35.473990	 5.254307
-0.472831	-0.042960	 1.259521	-171.425200	-4.056596	 1.067883	 4.083075	-7.821647	 179.010900	-8.529384	-40.474160	-5.929657	-85.149990	 84.754650	 76.722350	-2.385833	 28.452760	 0.000004	 9.106562	-18.518130	-168.726800	 4.510285	-47.225660	 2.193932	 37.175910	 74.823300	-26.626050	 2.384659	 28.388700	-0.000001	-15.125500	 9.067892	-3.756006	 6.010895	 5.480421	 16.378060	-10.494280	-1.317825	-15.108230	-91.776190	 78.527400	-180.000000	 23.728200	 51.170290	-51.888500	 2.239831	 6.076972	-120.993700	-10.451090	-20.354680	-5.742748	-4.130319	 21.525730	 0.991547	-5.167930	 0.731704	 3.519349	-1.378229	 35.397820	-2.634230	-4.521508	 0.885064	 1.953207	-18.273830	-25.117130	-15.517920	 89.782230	 78.203900	 179.999900	-28.690120	 45.134110	 43.969060	-7.560061	 0.833499	 85.207680	 32.934770	-36.335480	 30.667510	 5.716227	 19.173190	-3.685159	 5.027444	 0.246877	-9.377972	-2.350882	 35.473990	 5.254307
-0.459232	-0.035829	 1.264708	-170.637300	-2.610740	 1.233328	 0.611172	-8.308995	 178.888500	-7.293501	-39.076310	-4.970144	-68.341420	 84.030710	 59.334450	-2.385833	 28.452760	 0.000004	 11.384660	-20.510800	-169.204100	 2.881244	-39.902840	 0.871625	 28.862700	 71.657590	-16.648160	 2.384659	 28.388700	-0.000001	-15.530410	 7.097942	-4.304710	 9.357315	 8.088058	 16.546360	-11.054380	-2.787659	-15.303720	-91.776160	 78.527400	 180.000000	 25.858300	 49.335730	-57.394650	 3.115455	 7.973157	-119.025100	-12.352650	-20.098760	-6.428604	-4.130319	 21.525730	 0.991547	-5.167930	 0.731704	 3.519349	-1.378229	 35.397820	-2.634230	-4.710782	 0.377952	 1.965055	-18.398270	-25.202230	-15.123100	 89.782050	 78.203890	-180.000000	-23.940470	 45.515790	 39.605940	-8.063826	 2.460050	 91.492030	 33.527130	-42.761460	 26.646330	 5.716227	 19.173190	-3.685159	 5.027444	 0.246877	-9.377972	-2.350882	 35.473990	 5.254307
-0.446073	-0.027625	 1.267628	-170.060500	-1.645094	 1.029496	-2.099443	-8.711631	 178.775100	-6.316437	-38.463350	-4.290760	-62.431690	 83.711140	 52.763950	-2.385833	 28.452760	 0.000004	 15.706070	-20.987270	-169.497600	 0.264776	-36.252560	-0.743915	 32.317170	 70.993070	-18.020570	 2.384659	 28.388700	-0.000001	-15.485190	 5.528851	-4.739594	 11.593040	 10.375490	 16.974660	-11.633160	-4.052393	-15.754070	-91.776150	 78.527360	 180.000000	 25.243320	 48.603520	-57.855790	 3.270444	 9.320058	-115.994400	-13.491280	-19.949620	-6.816049	-4.130319	 21.525730	 0.991547	-5.167930	 0.731704	 3.519349	-1.378229	 35.397820	-2.634230	-4.927670	-0.613430	 1.792608	-18.401080	-24.802140	-14.090190	 89.782070	 78.203900	-180.000000	-22.727920	 45.108470	 37.932700	-8.468673	 3.390768	 94.041750	 35.098810	-48.259460	 26.633710	 5.716227	 19.173190	-3.685159	 5.027444	 0.246877	-9.377972	-2.350882	 35.473990	 5.254307
